<svg width="245" height="275" viewBox="0 0 245 275" fill="none" xmlns="http://www.w3.org/2000/svg">
<path d="M183.75 91.6667C183.75 125.431 156.341 152.778 122.5 152.778C88.6594 152.778 61.25 125.431 61.25 91.6667L62.9344 77.3056L15.3125 53.4722L122.5 0L229.688 53.4722V129.861H214.375V61.1111L182.066 77.3056L183.75 91.6667ZM122.5 183.333C190.181 183.333 245 210.681 245 244.444V275H0V244.444C0 210.681 54.8187 183.333 122.5 183.333Z" fill="#666699"/>
<path d="M48.1225 230.059V262.711C52.9975 258.632 61.125 258.632 66 262.711V230.059C61.125 225.98 52.9975 225.98 48.1225 230.059ZM27 230.059V262.711C31.875 258.632 40.0025 258.632 44.8775 262.711V230.059C40.0025 225.98 31.875 225.98 27 230.059Z" fill="#222C65"/>
<circle cx="56.4785" cy="250.84" r="5.98431" fill="white"/>
<path d="M56.4786 248.889L61.0393 256.789H51.9179L56.4786 248.889Z" fill="#222C65"/>
<line x1="52.7117" y1="254.241" x2="59.5115" y2="252.386" stroke="white"/>
<ellipse cx="97.0357" cy="81.5" rx="6.03571" ry="6.5" fill="white"/>
<ellipse cx="153.036" cy="81.5" rx="6.03571" ry="6.5" fill="white"/>
<ellipse cx="124" cy="124.5" rx="29" ry="11.5" fill="black"/>
<ellipse cx="123.5" cy="121.5" rx="28.5" ry="11.5" fill="#666699"/>
</svg>
